# xmcd
# 
# Track frame offsets:
#     182
#     20565
#     35362
#     51097
#     68040
#     87302
#     103482
#     120305
#     134500
#     155025
#     172620
# 
# Disc length: 2496
# 
# Revision: 4
# Processed by: cddbd v1.5.2PL0 Copyright (c) Steve Scherf et al.
# Submitted via: fre:ac v1.0.17
# 
DISCID=8e09be0b
DTITLE=Thrasher Shiver - Thrasher Shiver
DYEAR=1996
DGENRE=Country
TTITLE0=Goin' Goin' Gone
TTITLE1=All the King's Horses
TTITLE2=Closer
TTITLE3=You and I Belong
TTITLE4=She's the Only One
TTITLE5=Run Like the Wind
TTITLE6=Tragedy
TTITLE7=Between the Stones and Jones
TTITLE8=The Rails
TTITLE9=That's My Girl
TTITLE10=Be Honest
EXTD=
EXTT0=
EXTT1=
EXTT2=
EXTT3=
EXTT4=
EXTT5=
EXTT6=
EXTT7=
EXTT8=
EXTT9=
EXTT10=
PLAYORDER=
